HIERARCHY
ROOT Hips
{
	OFFSET 0.000000 0.000000 0.000000
	CHANNELS 6 Xposition Yposition Zposition Xrotation Yrotation Zrotation
	JOINT LeftUpLeg_virtual
	{
		OFFSET 0.000000 0.000000 0.000000
		CHANNELS 3 Xrotation Yrotation Zrotation
		JOINT LeftUpLeg
		{
			OFFSET 15.427100 -6.655098 0.678600
			CHANNELS 3 Xrotation Yrotation Zrotation
			JOINT LeftLeg
			{
				OFFSET 4.081073 -39.591068 13.024000
				CHANNELS 3 Xrotation Yrotation Zrotation
				JOINT LeftFoot
				{
					OFFSET -4.081074 -37.707932 -15.979700
					CHANNELS 3 Xrotation Yrotation Zrotation
					JOINT LeftToeBase
					{
						OFFSET 5.346399 -15.068900 20.645000
						CHANNELS 3 Xrotation Yrotation Zrotation
						JOINT LeftToe_End
						{
							OFFSET 2.754700 0.931300 11.300900
							CHANNELS 3 Xrotation Yrotation Zrotation
							End Site
							{
								OFFSET 0 0 0
							}
						}
					}
				}
			}
		}
	}
	JOINT RightUpLeg_virtual
	{
		OFFSET 0.000000 0.000000 0.000000
		CHANNELS 3 Xrotation Yrotation Zrotation
		JOINT RightUpLeg
		{
			OFFSET -15.569500 -6.655098 0.678600
			CHANNELS 3 Xrotation Yrotation Zrotation
			JOINT RightLeg
			{
				OFFSET -4.081825 -39.591045 13.023800
				CHANNELS 3 Xrotation Yrotation Zrotation
				JOINT RightFoot
				{
					OFFSET 4.081824 -37.707954 -15.979600
					CHANNELS 3 Xrotation Yrotation Zrotation
					JOINT RightToeBase
					{
						OFFSET -5.346400 -15.068900 20.645000
						CHANNELS 3 Xrotation Yrotation Zrotation
						JOINT RightToe_End
						{
							OFFSET -2.754700 0.931300 11.300900
							CHANNELS 3 Xrotation Yrotation Zrotation
							End Site
							{
								OFFSET 0 0 0
							}
						}
					}
				}
			}
		}
	}
	JOINT Spine_virtual
	{
		OFFSET 0.000000 0.000000 0.000000
		CHANNELS 3 Xrotation Yrotation Zrotation
		JOINT Spine
		{
			OFFSET -0.279200 12.230698 -2.892100
			CHANNELS 3 Xrotation Yrotation Zrotation
			JOINT Spine1
			{
				OFFSET -0.232667 10.192268 -1.242267
				CHANNELS 3 Xrotation Yrotation Zrotation
				JOINT Spine1_split
				{
					OFFSET -0.232667 10.192268 -1.242267
					CHANNELS 3 Xrotation Yrotation Zrotation
					JOINT Spine2
					{
						OFFSET -0.232667 10.192268 -1.242267
						CHANNELS 3 Xrotation Yrotation Zrotation
						JOINT Neck_virtual
						{
							OFFSET 0.000000 0.000000 0.000000
							CHANNELS 3 Xrotation Yrotation Zrotation
							JOINT Neck
							{
								OFFSET -0.418800 17.814194 8.416900
								CHANNELS 3 Xrotation Yrotation Zrotation
								JOINT Head
								{
									OFFSET 0.000000 7.031097 3.806800
									CHANNELS 3 Xrotation Yrotation Zrotation
									JOINT HeadTop_End
									{
										OFFSET 0.000000 24.646606 12.978600
										CHANNELS 3 Xrotation Yrotation Zrotation
										End Site
										{
											OFFSET 0 0 0
										}
									}
								}
							}
						}
						JOINT LeftShoulder_virtual
						{
							OFFSET 0.000000 0.000000 0.000000
							CHANNELS 3 Xrotation Yrotation Zrotation
							JOINT LeftShoulder
							{
								OFFSET 8.476499 7.247704 -3.868750
								CHANNELS 3 Xrotation Yrotation Zrotation
								JOINT LeftShoulder_split
								{
									OFFSET 8.476499 7.247704 -3.868750
									CHANNELS 3 Xrotation Yrotation Zrotation
									JOINT LeftArm
									{
										OFFSET 9.308998 -2.777710 0.208600
										CHANNELS 3 Xrotation Yrotation Zrotation
										JOINT LeftForeArm
										{
											OFFSET 29.972298 0.000000 0.000000
											CHANNELS 3 Xrotation Yrotation Zrotation
											JOINT LeftHand
											{
												OFFSET 26.026505 0.000000 0.000000
												CHANNELS 3 Xrotation Yrotation Zrotation
												End Site
												{
													OFFSET 0 0 0
												}
											}
										}
									}
								}
							}
						}
						JOINT RightShoulder_virtual
						{
							OFFSET 0.000000 0.000000 0.000000
							CHANNELS 3 Xrotation Yrotation Zrotation
							JOINT RightShoulder
							{
								OFFSET -7.570500 7.247704 -3.868750
								CHANNELS 3 Xrotation Yrotation Zrotation
								JOINT RightShoulder_split
								{
									OFFSET -7.570500 7.247704 -3.868750
									CHANNELS 3 Xrotation Yrotation Zrotation
									JOINT RightArm
									{
										OFFSET -9.308998 -2.777710 0.208500
										CHANNELS 3 Xrotation Yrotation Zrotation
										JOINT RightForeArm
										{
											OFFSET -29.972300 0.000000 0.000000
											CHANNELS 3 Xrotation Yrotation Zrotation
											JOINT RightHand
											{
												OFFSET -26.026505 0.000000 0.000000
												CHANNELS 3 Xrotation Yrotation Zrotation
												End Site
												{
													OFFSET 0 0 0
												}
											}
										}
									}
								}
							}
						}
					}
				}
			}
		}
	}
}
MOTION
Frames: 8
Frame Time: 0.03333333
65.871979 89.997299 43.400764 0.000000 0.000000 0.000000 0.862765 66.221409 -3.441454 -26.251900 -12.270944 -1.614246 19.908379 -3.107307 -7.113951 4.721602 -17.375346 1.512114 1.133524 -3.247599 1.985088 0.000000 0.000000 0.000000 1.904614 70.553177 -4.521627 13.466853 -9.244805 2.200078 28.287730 5.029132 -2.650423 -6.082640 -20.312154 14.513985 -35.100858 -0.151413 2.356116 0.000000 0.000000 0.000000 -0.916656 63.788079 -2.287160 6.634304 14.766147 -3.171921 -1.075547 12.420490 -1.392724 1.225002 -1.637495 0.495483 0.000000 0.000000 0.000000 -0.345891 12.383633 -1.751636 25.849717 -15.707014 7.810071 -32.861147 -68.161893 -1.956735 0.000000 0.000000 0.000000 -0.793328 12.381119 -1.394397 -2.946327 -7.401039 -15.839700 1.420629 3.794866 -4.517843 26.979131 -53.220687 -28.995280 -2.520979 -70.681789 -2.745467 0.000000 0.000000 0.000000 -0.987652 11.956292 -2.211202 -6.644562 32.345259 19.601857 -5.854108 -0.293320 1.983688 -3.491479 26.829886 53.930733 -3.581612 49.310230 -0.229478 0.000000 0.000000 0.000000 
65.424179 90.094437 43.168995 0.000000 0.000000 0.000000 0.800075 64.107507 -3.277540 -26.474638 -12.128049 -0.944483 20.072080 -1.876836 -7.270670 4.710553 -16.941413 1.353398 1.567087 -3.256957 1.925552 0.000000 0.000000 0.000000 1.826784 68.283935 -4.372402 13.753957 -10.055113 1.447728 26.621598 3.894664 -2.868342 -10.378264 -22.027572 10.043049 -25.500948 -0.209555 3.404206 0.000000 0.000000 0.000000 -0.510251 61.688923 -2.680006 6.655607 14.373021 -2.932858 -0.979448 11.912904 -1.173164 1.090168 -1.768280 0.529538 0.000000 0.000000 0.000000 -0.247631 11.922875 -1.536248 24.020838 -15.191300 7.031696 -31.830194 -67.702939 -1.333089 0.000000 0.000000 0.000000 -0.857098 11.963267 -1.263354 -2.882887 -6.946562 -15.809299 0.715683 3.961581 -4.425654 28.576154 -55.202313 -27.792067 -1.091313 -68.325517 -1.525817 0.000000 0.000000 0.000000 -0.949190 11.596164 -1.972484 -6.950160 31.406333 20.609034 -5.888044 -0.014390 2.276153 -4.113461 25.244374 54.564554 -3.386887 48.840651 -0.270025 0.000000 0.000000 0.000000 
64.978821 90.273262 42.954475 0.000000 0.000000 0.000000 0.856483 61.598184 -3.169276 -26.660271 -11.706349 0.000033 20.438569 -0.561447 -7.449354 4.516309 -16.440136 0.941311 1.957898 -3.242153 1.888844 0.000000 0.000000 0.000000 1.916495 65.565376 -4.264946 13.955585 -10.676375 0.510599 25.205734 2.718356 -3.136053 -13.792773 -24.119879 6.258840 -17.459232 -0.111198 4.048407 0.000000 0.000000 0.000000 -0.262625 59.465334 -2.883289 6.626809 13.943864 -2.636477 -0.879556 11.353758 -1.037704 0.894636 -1.919620 0.523980 0.000000 0.000000 0.000000 -0.152188 11.389347 -1.395059 21.773796 -14.563953 5.792406 -29.957346 -66.911450 -0.269590 0.000000 0.000000 0.000000 -0.863643 11.460783 -1.205309 -2.830548 -6.525955 -15.806463 0.297788 4.321379 -4.282014 29.351427 -56.688712 -27.297727 0.429141 -66.271297 -0.311242 0.000000 0.000000 0.000000 -0.835568 11.159165 -1.809838 -7.150941 30.481871 21.483469 -5.655088 0.062240 2.549383 -4.600533 24.340624 54.369597 -3.193598 48.618137 -0.256277 0.000000 0.000000 0.000000 
64.548431 90.416473 42.727669 0.000000 0.000000 0.000000 1.012908 58.782698 -3.105969 -26.754169 -11.035036 1.165274 21.034228 0.714361 -7.591392 4.212288 -15.823156 0.377245 2.051436 -3.214331 1.861599 0.000000 0.000000 0.000000 2.193915 62.519447 -4.262415 14.060874 -10.980995 -0.461048 23.797040 2.079818 -3.500561 -16.215328 -26.012350 4.192534 -12.543564 0.040194 3.878087 0.000000 0.000000 0.000000 -0.059944 57.060104 -2.986536 6.542526 13.472723 -2.298613 -0.784908 10.742664 -0.945216 0.754475 -2.099665 0.556016 0.000000 0.000000 0.000000 -0.085802 10.776997 -1.284437 19.238167 -13.777441 3.926689 -26.967675 -65.614677 1.431169 0.000000 0.000000 0.000000 -0.836290 10.870687 -1.170532 -2.792013 -6.125316 -15.879244 0.188352 4.623973 -4.130746 28.792789 -57.367818 -28.065568 1.761043 -64.999727 0.688315 0.000000 0.000000 0.000000 -0.671361 10.610800 -1.707567 -7.217284 29.579312 22.159142 -5.326346 -0.109155 2.790086 -4.408391 24.095140 53.197266 -2.995030 49.244752 -0.213020 0.000000 0.000000 0.000000 
64.101448 90.482056 42.518585 0.000000 0.000000 0.000000 1.385147 55.683097 -3.185400 -26.749954 -10.149758 2.477094 21.828851 1.823822 -7.626200 3.905205 -15.045168 -0.099128 1.871377 -3.190005 1.819521 0.000000 0.000000 0.000000 2.521562 59.330957 -4.262419 14.009649 -11.193908 -1.178795 22.595319 1.844547 -3.929999 -18.002354 -27.468845 3.613486 -10.445284 0.191875 2.890299 0.000000 0.000000 0.000000 0.233356 54.519960 -3.121653 6.411714 12.948561 -1.915843 -0.679464 10.064446 -0.841083 0.699710 -2.176039 0.561319 0.000000 0.000000 0.000000 -0.041066 10.075787 -1.155766 16.554833 -12.758435 1.405383 -23.237292 -63.772138 3.492045 0.000000 0.000000 0.000000 -0.778856 10.192190 -1.104624 -2.748050 -5.675108 -16.039581 0.232629 4.819142 -4.100756 26.940872 -57.053612 -30.138780 2.706932 -64.708516 1.360813 0.000000 0.000000 0.000000 -0.518138 9.942993 -1.606347 -7.144332 28.679923 22.620282 -4.943945 -0.329118 3.012121 -3.308264 24.321136 51.232361 -2.846690 51.183197 -0.143091 0.000000 0.000000 0.000000 
63.537155 90.397873 42.358200 0.000000 0.000000 0.000000 1.732549 52.569357 -3.259348 -26.658992 -9.029358 3.867454 22.688782 2.671490 -7.554561 3.620294 -14.088005 -0.368935 1.601673 -3.160975 1.723778 0.000000 0.000000 0.000000 2.747526 56.186038 -4.164350 13.681618 -11.290516 -1.554238 21.520803 1.962308 -4.312780 -19.985764 -28.196746 3.651139 -9.262916 0.356485 1.439673 0.000000 0.000000 0.000000 0.518189 51.988343 -3.259581 6.269173 12.340951 -1.530306 -0.553587 9.309060 -0.684873 0.700880 -2.171036 0.545741 0.000000 0.000000 0.000000 0.005270 9.295475 -0.972923 13.888733 -11.547499 -1.624755 -19.187770 -61.480971 5.605352 0.000000 0.000000 0.000000 -0.667348 9.431079 -0.961991 -2.676150 -5.230730 -16.268797 0.335846 4.734477 -4.158495 24.465693 -55.941865 -32.905164 3.189259 -65.251208 1.659898 0.000000 0.000000 0.000000 -0.394419 9.171015 -1.456311 -6.937280 27.745538 22.892060 -4.519464 -0.351571 3.170677 -1.420070 24.743368 48.997117 -2.697748 54.631852 -0.105812 0.000000 0.000000 0.000000 
62.876297 90.225235 42.212540 0.000000 0.000000 0.000000 2.062363 49.458240 -3.330483 -26.513329 -7.662427 5.239956 23.304848 3.171201 -7.363738 3.362712 -12.976629 -0.447405 1.404518 -3.130064 1.565907 0.000000 0.000000 0.000000 2.872118 53.218788 -4.046888 13.170805 -11.412932 -1.656790 20.653068 2.280489 -4.613865 -22.057007 -27.958751 3.770814 -7.879899 0.511385 -0.006449 0.000000 0.000000 0.000000 0.751470 49.516081 -3.350426 6.138592 11.647971 -1.179872 -0.398814 8.492492 -0.463020 0.807467 -2.069130 0.533707 0.000000 0.000000 0.000000 0.083382 8.469485 -0.728021 11.421544 -10.170875 -4.865376 -15.379909 -58.939444 7.478835 0.000000 0.000000 0.000000 -0.495908 8.623649 -0.733995 -2.566329 -4.827013 -16.502973 0.420761 4.317043 -4.229696 21.962318 -54.462293 -35.808629 3.227505 -66.301275 1.662452 0.000000 0.000000 0.000000 -0.278889 8.333138 -1.241399 -6.634826 26.712195 23.079964 -4.080997 -0.037463 3.258568 0.980079 25.101329 46.888986 -2.508372 59.309620 -0.125541 0.000000 0.000000 0.000000 
62.063892 90.104370 42.054184 0.000000 0.000000 0.000000 2.318562 46.474007 -3.356813 -26.323260 -6.079230 6.518377 23.522111 3.262588 -7.070907 3.117800 -11.767402 -0.489237 1.309847 -3.093024 1.398871 0.000000 0.000000 0.000000 2.884652 50.395642 -3.854207 12.355412 -11.598850 -1.605771 20.068520 2.607837 -4.782945 -23.459500 -27.016166 3.939541 -6.353293 0.584733 -1.036388 0.000000 0.000000 0.000000 0.902668 47.129398 -3.364355 6.009238 10.897616 -0.892317 -0.216244 7.661337 -0.204500 0.878681 -1.905098 0.511627 0.000000 0.000000 0.000000 0.211115 7.658058 -0.443674 9.291130 -8.752163 -7.992386 -12.240675 -56.397295 8.887756 0.000000 0.000000 0.000000 -0.272554 7.827214 -0.452670 -2.407520 -4.491855 -16.712037 0.514197 3.872564 -4.265606 19.708825 -53.012182 -38.526174 2.981770 -67.407970 1.478467 0.000000 0.000000 0.000000 -0.164051 7.510889 -0.958452 -6.265448 25.547146 23.220635 -3.585810 0.378048 3.288176 3.318900 25.105894 45.242452 -2.298552 64.557507 -0.200044 0.000000 0.000000 0.000000 
